<svg width="1440" height="138" viewBox="0 0 1440 138" fill="none" xmlns="http://www.w3.org/2000/svg">
<rect width="1440" height="138" fill="url(#paint0_linear)"/>
<path d="M-0.999997 125C-9.50134 129.483 -8.876 128.543 -0.999997 124.654L-1.00002 87V0.500015H34.5L345 0.499965L1022 0L1440 2.63751e-05V102.5L1421.5 105.5C1287 117.5 1256.5 56.5 1111.5 32.5C966.5 8.50001 907.5 105.5 782.5 105.5C659.593 105.5 505.5 68 465 58.5C424.5 49 378 31 327.5 76.5C277 122 239.5 66.739 139.5 82C70.4139 92.5433 16.6012 115.963 -0.999997 124.654V125Z" fill="url(#paint1_linear)"/>
<path d="M112.608 46.512H122.592V94H112.608V46.512ZM187.154 59.568L174.674 94H165.074L157.33 72.624L149.33 94H139.73L127.314 59.568H136.722L144.85 82.864L153.298 59.568H161.746L169.938 82.864L178.322 59.568H187.154ZM204.559 59.056C209.892 59.056 213.988 60.336 216.847 62.896C219.705 65.4133 221.135 69.232 221.135 74.352V94H211.791V89.712C209.913 92.912 206.415 94.512 201.295 94.512C198.649 94.512 196.345 94.064 194.383 93.168C192.463 92.272 190.991 91.0347 189.967 89.456C188.943 87.8773 188.431 86.0853 188.431 84.08C188.431 80.88 189.625 78.3627 192.015 76.528C194.447 74.6933 198.18 73.776 203.215 73.776H211.151C211.151 71.6 210.489 69.936 209.167 68.784C207.844 67.5893 205.86 66.992 203.215 66.992C201.38 66.992 199.567 67.2907 197.775 67.888C196.025 68.4427 194.532 69.2107 193.295 70.192L189.711 63.216C191.588 61.8933 193.828 60.8693 196.431 60.144C199.076 59.4187 201.785 59.056 204.559 59.056ZM203.791 87.792C205.497 87.792 207.012 87.408 208.335 86.64C209.657 85.8293 210.596 84.656 211.151 83.12V79.6H204.303C200.207 79.6 198.159 80.944 198.159 83.632C198.159 84.912 198.649 85.936 199.631 86.704C200.655 87.4293 202.041 87.792 203.791 87.792ZM263.722 59.568L249.194 94H238.89L224.425 59.568H234.73L244.266 82.992L254.122 59.568H263.722Z" fill="white"/>
<path fill-rule="evenodd" clip-rule="evenodd" d="M302.336 76.912C302.336 77.04 302.272 77.936 302.144 79.6H276.096C276.565 81.7333 278 84.372 280.5 85.936C283 87.5 287 87.5 292.5 87.5C298 87.5 306 85.936 306 85.936C320 82.436 327.5 76.5 327.5 76.5C327.5 76.5 317 86.5 304.5 91C292 95.5 288.5 94.5 284 94.5C279.5 94.5 275.392 92.272 275.392 92.272C272.405 90.736 270.101 88.624 268.48 85.936C266.859 83.248 266.048 80.1973 266.048 76.784C266.048 73.4133 266.837 70.384 268.416 67.696C270.037 64.9653 272.235 62.8533 275.008 61.36C277.824 59.824 280.96 59.056 284.416 59.056C287.787 59.056 290.837 59.7813 293.568 61.232C296.299 62.6827 298.432 64.7733 299.968 67.504C301.547 70.192 302.336 73.328 302.336 76.912ZM278.784 68.528C280.32 67.248 282.219 66.608 284.48 66.608C286.699 66.608 288.576 67.2693 290.112 68.592C291.648 69.872 292.587 71.6 292.928 73.776H275.968C276.309 71.5573 277.248 69.808 278.784 68.528Z" fill="#00FFC2"/>
<defs>
<linearGradient id="paint0_linear" x1="0" y1="0" x2="1441.94" y2="113.377" gradientUnits="userSpaceOnUse">
<stop stop-color="#0069B5"/>
<stop offset="0.952" stop-color="#295F5F"/>
</linearGradient>
<linearGradient id="paint1_linear" x1="706.176" y1="-71.0399" x2="706.176" y2="125.5" gradientUnits="userSpaceOnUse">
<stop stop-color="#0069B5" stop-opacity="0.62"/>
<stop offset="1" stop-color="#00ECC1" stop-opacity="0.84"/>
</linearGradient>
</defs>
</svg>
